<svg xmlns="http://www.w3.org/2000/svg" viewBox="0 0 24 24" id="napster">
  <path d="M11.948 23.75h-.004c-4.581-.002-9.504-2.761-10.289-8.914A4.956 4.956 0 0 1-.5 10.732a4.9 4.9 0 0 1 2.119-4.017v-3.04a.502.502 0 0 1 .513-.5c.758.021 1.521.121 2.271.3A10.569 10.569 0 0 1 12.008.25c2.905-.034 5.63 1.169 7.604 3.22a11.033 11.033 0 0 1 2.248-.296.574.574 0 0 1 .362.142.5.5 0 0 1 .151.358v3.035a4.892 4.892 0 0 1 2.126 4.051 4.895 4.895 0 0 1-2.168 4.069c-.783 6.143-5.904 8.921-10.383 8.921zM2.619 4.202v2.783a.5.5 0 0 1-.237.426A3.913 3.913 0 0 0 .5 10.736c-.005 1.375.701 2.642 1.89 3.387a.5.5 0 0 1 .231.369c.622 5.702 5.131 8.257 9.323 8.258h.004c4.234 0 8.783-2.53 9.404-8.187l.02-.115a.498.498 0 0 1 .231-.339 3.907 3.907 0 0 0 1.896-3.351 3.91 3.91 0 0 0-1.888-3.354.5.5 0 0 1-.238-.426V4.201a9.808 9.808 0 0 0-1.795.309.496.496 0 0 1-.5-.146 9.557 9.557 0 0 0-7.068-3.113h-.003a9.557 9.557 0 0 0-7.07 3.118.507.507 0 0 1-.499.147 10.11 10.11 0 0 0-1.819-.314zm9.397 17.632c-4.202 0-8.457-2.855-8.457-8.314V5.8a.502.502 0 0 1 .627-.484A9.288 9.288 0 0 1 7.451 6.92a8.541 8.541 0 0 1 9.087-.006 9.277 9.277 0 0 1 3.268-1.593.503.503 0 0 1 .628.483v7.699c0 2.571-.914 4.733-2.643 6.252-1.526 1.342-3.577 2.079-5.775 2.079zM4.559 6.476v7.044c0 5.025 3.865 7.314 7.457 7.314 1.956 0 3.771-.649 5.114-1.828 1.507-1.323 2.303-3.226 2.303-5.501V6.481a8.156 8.156 0 0 0-2.548 1.437.497.497 0 0 1-.606.026c-2.557-1.781-6.002-1.78-8.57.005a.497.497 0 0 1-.606-.026 8.324 8.324 0 0 0-2.544-1.447zm2.888-.69a.502.502 0 0 1-.267-.077 10.094 10.094 0 0 0-.94-.519.499.499 0 0 1-.119-.818c3.292-3.026 8.455-3.03 11.755-.01a.5.5 0 0 1-.119.819c-.329.159-.644.333-.953.524a.51.51 0 0 1-.491.02 9.472 9.472 0 0 0-8.637.006.502.502 0 0 1-.229.055zm-.095-1.14.12.069a10.483 10.483 0 0 1 9.046-.005l.127-.073c-2.73-2.054-6.572-2.052-9.293.009z"></path>
  <path d="M11.203 15.542h-.005s-1.752-.018-2.982-.071c-.568-.028-1.163-.21-1.457-.374l-.003-.002c-1.393-.789-1.478-2.062-1.51-2.542l-.009-.107a.497.497 0 0 1 .493-.549l.543-.006c3.429-.035 4.722-.052 5.417 3.042a.496.496 0 0 1-.487.609zm-3.955-1.317c.133.073.577.226 1.014.247.743.032 1.682.052 2.297.062-.493-1.683-1.223-1.675-4.272-1.643.072.427.277.945.961 1.334zm4.754 6.122c-.9 0-1.8-.234-2.584-.702a.499.499 0 0 1-.237-.512c.011-.062.071-.387.26-.66a.5.5 0 0 1 .859.508 4.117 4.117 0 0 0 3.407-.002.499.499 0 0 1 .886-.453c.115.184.19.38.225.585a.499.499 0 0 1-.233.534 5.057 5.057 0 0 1-2.583.702zm.791-4.81a.499.499 0 0 1-.489-.61c.691-3.086 1.976-3.073 5.406-3.042l.554.005a.498.498 0 0 1 .494.548l-.009.108c-.031.479-.116 1.754-1.511 2.543-.29.163-.897.349-1.456.375a95 95 0 0 1-2.986.072l-.003.001zm2.967-.571h.01-.01zm.95-2.087c-2.229 0-2.842.171-3.274 1.65.616-.01 1.556-.028 2.301-.062.436-.021.881-.174 1.013-.248.684-.387.889-.905.961-1.333h-.008c-.363-.003-.693-.007-.993-.007z"></path>
  <path d="M11.996 18.526a.52.52 0 0 1-.157-.025 7.04 7.04 0 0 1-2.622-1.569.5.5 0 0 1 .345-.862h4.873a.5.5 0 0 1 .344.863 6.98 6.98 0 0 1-2.625 1.568.502.502 0 0 1-.158.025zm-.926-1.457c.295.168.605.312.927.428.323-.117.634-.26.93-.428H11.07z"></path>
</svg>
