<?xml version="1.0" encoding="utf-8" ?>
<svg baseProfile="tiny" height="200" version="1.2" viewBox="0 0 200 200" width="200" xmlns="http://www.w3.org/2000/svg" xmlns:ev="http://www.w3.org/2001/xml-events" xmlns:xlink="http://www.w3.org/1999/xlink"><defs /><path d="M 100,10 C 130,10 160,30 160,60 C 170,60 180,70 180,80 C 180,100 160,110 160,120 C 160,150 130,180 100,180 C 70,180 40,150 40,120 C 40,110 20,100 20,80 C 20,70 30,60 40,60 C 40,30 70,10 100,10 Z M 65,80 C 70,70 80,70 85,80 C 80,85 70,85 65,80 Z M 115,80 C 120,70 130,70 135,80 C 130,85 120,85 115,80 Z M 85,120 C 100,130 115,120 100,125 C 95,127 90,127 85,120 Z" fill="black" fill-rule="evenodd" /></svg>