<svg width="686" height="652" viewBox="0 0 686 652" fill="none" xmlns="http://www.w3.org/2000/svg">
<path d="M395.306 526.562C395.306 526.562 400.422 529.328 404.847 536.656C408.991 543.426 409.271 548.839 409.409 548.962C369.172 573.298 316.628 573.298 276.391 548.962C276.4 548.904 277.65 541.336 281.507 535.689C286.347 528.637 290.357 526.562 290.357 526.562C323.127 536.103 361.014 536.656 395.306 526.562Z" fill="black"/>
<path d="M412.451 472.36C392.817 491.165 369.172 505.683 342.762 514.532C316.49 505.683 292.707 491.165 273.21 472.36H412.451Z" fill="black"/>
<path d="M171.027 366.028C280.677 365.06 309.024 360.496 327.276 442.63C327.276 442.63 277.497 442.076 242.514 440.556C228.272 439.864 213.338 435.026 207.254 431.569C170.889 410.69 172.133 377.366 171.027 366.028Z" fill="black"/>
<path d="M358.387 442.492C376.501 360.495 404.709 365.06 514.636 365.889C513.53 377.227 514.774 410.551 478.408 431.43C472.324 434.886 457.252 439.727 443.149 440.418C408.18 442.092 358.429 442.492 358.387 442.492Z" fill="black"/>
<path fill-rule="evenodd" clip-rule="evenodd" d="M130.513 94.9905C243.897 -31.6436 442.318 -31.6443 555.702 94.8752C577.964 88.7912 601.056 85.3343 624.978 84.6428V180.328C706.146 230.798 705.87 348.883 624.703 399.076L624.286 401.425C588.474 731.621 97.1889 738.258 60.6848 399.351C-20.2049 347.913 -20.2053 230.934 60.5461 180.464V84.6409C84.7439 85.3323 107.974 88.9065 130.513 94.9905ZM115.994 369.607C115.994 670.089 569.53 672.579 569.53 369.207V146.311C533.579 155.99 500.947 172.998 473.292 196.366C395.306 141.309 290.633 141.18 212.094 196.49C184.578 173.259 151.807 155.699 115.994 146.158V369.607ZM501.085 115.19C411.761 32.3737 273.625 32.5124 184.577 115.476C193.565 119.901 204.074 125.674 212.785 131.205C293.952 89.0563 391.434 88.9179 472.601 131.091C481.865 125.284 491.268 120.03 501.085 115.19Z" fill="black"/>
</svg>
